<?xml version="1.0" encoding="UTF-8" standalone="yes"?><svg xmlns="http://www.w3.org/2000/svg" xmlns:xlink="http://www.w3.org/1999/xlink" height="406px" style="width:285px;height:406px;" version="1.1" viewBox="0 0 285 406" width="285px"><defs><filter height="300%" id="f1" width="300%" x="-1" y="-1"><feGaussianBlur result="blurOut" stdDeviation="2.0"/><feColorMatrix in="blurOut" result="blurOut2" type="matrix" values="0 0 0 0 0 0 0 0 0 0 0 0 0 0 0 0 0 0 .4 0"/><feOffset dx="4.0" dy="4.0" in="blurOut2" result="blurOut3"/><feBlend in="SourceGraphic" in2="blurOut3" mode="normal"/></filter></defs><g><ellipse cx="144" cy="20" fill="#000000" filter="url(#f1)" rx="10" ry="10" style="stroke: none; stroke-width: 1.0;"/><rect fill="#FEFECE" filter="url(#f1)" height="34.1328" rx="12.5" ry="12.5" style="stroke: #A80036; stroke-width: 1.5;" width="52" x="118" y="50"/><text fill="#000000" font-family="sans-serif" font-size="12" lengthAdjust="spacingAndGlyphs" textLength="32" x="128" y="71.6016">task1</text><rect fill="#000000" filter="url(#f1)" height="6" rx="2.5" ry="2.5" style="stroke: #000000; stroke-width: 1.0;" width="268" x="10" y="104.1328"/><rect fill="#FEFECE" filter="url(#f1)" height="34.1328" rx="12.5" ry="12.5" style="stroke: #A80036; stroke-width: 1.5;" width="52" x="24" y="184.2656"/><text fill="#000000" font-family="sans-serif" font-size="12" lengthAdjust="spacingAndGlyphs" textLength="32" x="34" y="205.8672">task2</text><rect fill="#FEFECE" filter="url(#f1)" height="34.1328" rx="12.5" ry="12.5" style="stroke: #A80036; stroke-width: 1.5;" width="52" x="158" y="130.1328"/><text fill="#000000" font-family="sans-serif" font-size="12" lengthAdjust="spacingAndGlyphs" textLength="32" x="168" y="151.7344">task3</text><rect fill="#000000" filter="url(#f1)" height="6" rx="2.5" ry="2.5" style="stroke: #000000; stroke-width: 1.0;" width="160" x="104" y="192.832"/><rect fill="#FEFECE" filter="url(#f1)" height="34.1328" rx="12.5" ry="12.5" style="stroke: #A80036; stroke-width: 1.5;" width="52" x="118" y="218.832"/><text fill="#000000" font-family="sans-serif" font-size="12" lengthAdjust="spacingAndGlyphs" textLength="32" x="128" y="240.4336">task4</text><rect fill="#FEFECE" filter="url(#f1)" height="34.1328" rx="12.5" ry="12.5" style="stroke: #A80036; stroke-width: 1.5;" width="52" x="198" y="218.832"/><text fill="#000000" font-family="sans-serif" font-size="12" lengthAdjust="spacingAndGlyphs" textLength="32" x="208" y="240.4336">task5</text><rect fill="#000000" filter="url(#f1)" height="6" rx="2.5" ry="2.5" style="stroke: #000000; stroke-width: 1.0;" width="160" x="104" y="272.9648"/><rect fill="#000000" filter="url(#f1)" height="6" rx="2.5" ry="2.5" style="stroke: #000000; stroke-width: 1.0;" width="268" x="10" y="298.9648"/><rect fill="#FEFECE" filter="url(#f1)" height="34.1328" rx="12.5" ry="12.5" style="stroke: #A80036; stroke-width: 1.5;" width="52" x="118" y="324.9648"/><text fill="#000000" font-family="sans-serif" font-size="12" lengthAdjust="spacingAndGlyphs" textLength="32" x="128" y="346.5664">task6</text><ellipse cx="144" cy="389.0977" fill="none" filter="url(#f1)" rx="10" ry="10" style="stroke: #000000; stroke-width: 1.0;"/><ellipse cx="144.5" cy="389.5977" fill="#000000" filter="url(#f1)" rx="6" ry="6" style="stroke: none; stroke-width: 1.0;"/><line style="stroke: #A80036; stroke-width: 1.5;" x1="144" x2="144" y1="30" y2="50"/><polygon fill="#A80036" points="140,40,144,50,148,40,144,44" style="stroke: #A80036; stroke-width: 1.0;"/><line style="stroke: #A80036; stroke-width: 1.5;" x1="144" x2="144" y1="198.832" y2="218.832"/><polygon fill="#A80036" points="140,208.832,144,218.832,148,208.832,144,212.832" style="stroke: #A80036; stroke-width: 1.0;"/><line style="stroke: #A80036; stroke-width: 1.5;" x1="144" x2="144" y1="252.9648" y2="272.9648"/><polygon fill="#A80036" points="140,262.9648,144,272.9648,148,262.9648,144,266.9648" style="stroke: #A80036; stroke-width: 1.0;"/><line style="stroke: #A80036; stroke-width: 1.5;" x1="224" x2="224" y1="198.832" y2="218.832"/><polygon fill="#A80036" points="220,208.832,224,218.832,228,208.832,224,212.832" style="stroke: #A80036; stroke-width: 1.0;"/><line style="stroke: #A80036; stroke-width: 1.5;" x1="224" x2="224" y1="252.9648" y2="272.9648"/><polygon fill="#A80036" points="220,262.9648,224,272.9648,228,262.9648,224,266.9648" style="stroke: #A80036; stroke-width: 1.0;"/><line style="stroke: #A80036; stroke-width: 1.5;" x1="184" x2="184" y1="164.2656" y2="192.832"/><polygon fill="#A80036" points="180,182.832,184,192.832,188,182.832,184,186.832" style="stroke: #A80036; stroke-width: 1.0;"/><line style="stroke: #A80036; stroke-width: 1.5;" x1="50" x2="50" y1="110.1328" y2="184.2656"/><polygon fill="#A80036" points="46,174.2656,50,184.2656,54,174.2656,50,178.2656" style="stroke: #A80036; stroke-width: 1.0;"/><line style="stroke: #A80036; stroke-width: 1.5;" x1="50" x2="50" y1="218.3984" y2="298.9648"/><polygon fill="#A80036" points="46,288.9648,50,298.9648,54,288.9648,50,292.9648" style="stroke: #A80036; stroke-width: 1.0;"/><line style="stroke: #A80036; stroke-width: 1.5;" x1="184" x2="184" y1="110.1328" y2="130.1328"/><polygon fill="#A80036" points="180,120.1328,184,130.1328,188,120.1328,184,124.1328" style="stroke: #A80036; stroke-width: 1.0;"/><line style="stroke: #A80036; stroke-width: 1.5;" x1="184" x2="184" y1="278.9648" y2="298.9648"/><polygon fill="#A80036" points="180,288.9648,184,298.9648,188,288.9648,184,292.9648" style="stroke: #A80036; stroke-width: 1.0;"/><line style="stroke: #A80036; stroke-width: 1.5;" x1="144" x2="144" y1="84.1328" y2="104.1328"/><polygon fill="#A80036" points="140,94.1328,144,104.1328,148,94.1328,144,98.1328" style="stroke: #A80036; stroke-width: 1.0;"/><line style="stroke: #A80036; stroke-width: 1.5;" x1="144" x2="144" y1="304.9648" y2="324.9648"/><polygon fill="#A80036" points="140,314.9648,144,324.9648,148,314.9648,144,318.9648" style="stroke: #A80036; stroke-width: 1.0;"/><line style="stroke: #A80036; stroke-width: 1.5;" x1="144" x2="144" y1="359.0977" y2="379.0977"/><polygon fill="#A80036" points="140,369.0977,144,379.0977,148,369.0977,144,373.0977" style="stroke: #A80036; stroke-width: 1.0;"/></g></svg>